<?xml version="1.0" encoding="iso-8859-1"?>
<!-- Generator: Adobe Illustrator 19.0.0, SVG Export Plug-In . SVG Version: 6.00 Build 0)  -->
<svg version="1.1" id="Layer_1" xmlns="http://www.w3.org/2000/svg" xmlns:xlink="http://www.w3.org/1999/xlink" x="0px" y="0px"
	 viewBox="0 0 511.991 511.991" style="enable-background:new 0 0 511.991 511.991;" xml:space="preserve">
<circle style="fill:#E84F4F;" cx="255.995" cy="255.995" r="255.995"/>
<path style="fill:#D14747;" d="M504.448,317.529L290.541,103.622l-36.429,338.964l62.196,62.196
	C408.822,482.457,481.679,409.822,504.448,317.529z"/>
<circle style="fill:#FFE6FF;" cx="254.445" cy="132.495" r="46.309"/>
<circle style="fill:#663333;" cx="290.65" cy="178.143" r="46.309"/>
<circle style="fill:#FFAD1A;" cx="218.24" cy="178.143" r="46.309"/>
<path style="fill:#FFD796;" d="M254.223,442.585l-77.966-243.56c0,0,44.203,10.884,77.966,8.107
	c33.874,2.665,77.966-8.107,77.966-8.107L254.223,442.585z"/>
<path style="fill:#F8C277;" d="M254.223,207.132c33.874,2.665,77.966-8.107,77.966-8.107l-77.966,243.56L254.223,207.132
	L254.223,207.132z"/>
<path style="fill:#DE652C;" d="M205.689,146.158c2.11,0,3.888,1.777,3.888,3.888c0,2.11-1.777,3.888-3.888,3.888
	c-2.11,0-3.888-1.777-3.888-3.888C201.801,147.936,203.578,146.158,205.689,146.158z M226.235,188.363c1.777,0,3.22,1.444,3.22,3.22
	s-1.444,3.22-3.22,3.22s-3.22-1.444-3.22-3.22C223.014,189.806,224.458,188.363,226.235,188.363z M253.223,161.374
	c2.221,0,3.999,1.777,3.999,3.999c0,2.221-1.777,3.999-3.999,3.999c-2.221,0-3.999-1.777-3.999-3.999
	C249.225,163.151,251.002,161.374,253.223,161.374z M190.584,154.378c1.333,0,2.332,0.999,2.332,2.332s-0.999,2.332-2.332,2.332
	s-2.332-0.999-2.332-2.332C188.252,155.377,189.251,154.378,190.584,154.378z M226.346,141.05c1.555,0,2.887,1.333,2.887,2.887
	s-1.333,2.887-2.887,2.887s-2.887-1.333-2.887-2.887C223.458,142.383,224.792,141.05,226.346,141.05z M189.584,184.475
	c2.332,0,4.221,1.888,4.221,4.221c0,2.332-1.888,4.221-4.221,4.221c-2.332,0-4.221-1.888-4.221-4.221
	C185.363,186.364,187.252,184.475,189.584,184.475z M244.45,190.25c1.444,0,2.554,1.11,2.554,2.554s-1.11,2.554-2.554,2.554
	s-2.554-1.11-2.554-2.554S243.005,190.25,244.45,190.25z M229.789,163.262c2.332,0,4.332,1.888,4.332,4.332
	c0,2.332-1.888,4.332-4.332,4.332c-2.332,0-4.332-1.888-4.332-4.332C225.458,165.261,227.346,163.262,229.789,163.262z
	 M208.798,166.15c3.888,0,7.108,3.109,7.108,7.108c0,3.888-3.109,7.108-7.108,7.108c-3.888,0-7.108-3.109-7.108-7.108
	C201.69,169.371,204.799,166.15,208.798,166.15z"/>
<path style="fill:#FFADBE;" d="M243.782,96.625c1.555,0,2.776,1.222,2.776,2.776s-1.221,2.776-2.776,2.776s-2.776-1.221-2.776-2.776
	C241.006,97.846,242.228,96.625,243.782,96.625z M258.444,126.611c1.221,0,2.221,0.999,2.221,2.221s-0.999,2.221-2.221,2.221
	c-1.222,0-2.221-0.999-2.221-2.221C256.222,127.612,257.222,126.611,258.444,126.611z M277.657,107.398
	c1.555,0,2.887,1.222,2.887,2.887c0,1.555-1.222,2.887-2.887,2.887c-1.555,0-2.887-1.222-2.887-2.887
	C274.769,108.731,275.991,107.398,277.657,107.398z M233.121,102.4c0.888,0,1.666,0.777,1.666,1.666
	c0,0.888-0.777,1.666-1.666,1.666s-1.666-0.777-1.666-1.666C231.455,103.178,232.233,102.4,233.121,102.4z M258.555,92.959
	c1.11,0,1.999,0.888,1.999,1.999s-0.888,1.999-1.999,1.999s-1.999-0.888-1.999-1.999C256.555,93.848,257.444,92.959,258.555,92.959z
	 M232.455,123.835c1.666,0,2.998,1.333,2.998,2.998s-1.333,2.998-2.998,2.998s-2.998-1.333-2.998-2.998
	S230.788,123.835,232.455,123.835z M271.549,127.945c0.999,0,1.888,0.777,1.888,1.888c0,0.999-0.777,1.777-1.888,1.777
	c-0.999,0-1.777-0.777-1.777-1.777C269.771,128.833,270.549,127.945,271.549,127.945z M261.109,108.731
	c1.666,0,3.109,1.333,3.109,3.109c0,1.666-1.333,3.109-3.109,3.109c-1.666,0-3.109-1.333-3.109-3.109
	C257.999,110.174,259.332,108.731,261.109,108.731z M246.226,110.73c2.776,0,4.998,2.221,4.998,4.998
	c0,2.776-2.221,4.998-4.998,4.998s-4.998-2.221-4.998-4.998S243.449,110.73,246.226,110.73z"/>
<path style="fill:#E6E6E6;" d="M308.532,146.937c-1.777,0-3.22,1.444-3.22,3.22s1.444,3.22,3.22,3.22s3.22-1.444,3.22-3.22
	S310.31,146.937,308.532,146.937z M291.54,181.81c-1.444,0-2.665,1.221-2.665,2.665s1.222,2.665,2.665,2.665
	c1.444,0,2.665-1.221,2.665-2.665S292.984,181.81,291.54,181.81z M269.216,159.487c-1.777,0-3.332,1.444-3.332,3.332
	c0,1.777,1.444,3.332,3.332,3.332c1.777,0,3.332-1.444,3.332-3.332C272.548,161.041,271.105,159.487,269.216,159.487z
	 M320.971,153.711c-1.11,0-1.999,0.888-1.999,1.999s0.888,1.999,1.999,1.999s1.999-0.888,1.999-1.999
	S322.082,153.711,320.971,153.711z M291.429,142.716c-1.333,0-2.332,1.11-2.332,2.332c0,1.333,1.11,2.332,2.332,2.332
	c1.333,0,2.332-1.11,2.332-2.332C293.761,143.715,292.651,142.716,291.429,142.716z M321.749,178.589
	c-1.888,0-3.443,1.555-3.443,3.443c0,1.888,1.555,3.443,3.443,3.443c1.889,0,3.443-1.555,3.443-3.443
	C325.192,180.144,323.637,178.589,321.749,178.589z M276.436,183.365c-1.222,0-2.11,0.999-2.11,2.11c0,1.221,0.999,2.11,2.11,2.11
	c1.221,0,2.11-0.999,2.11-2.11C278.546,184.253,277.546,183.365,276.436,183.365z M288.541,161.041
	c-1.999,0-3.554,1.555-3.554,3.554s1.555,3.554,3.554,3.554c1.999,0,3.554-1.555,3.554-3.554S290.541,161.041,288.541,161.041z
	 M305.867,163.373c-3.221,0-5.886,2.665-5.886,5.886s2.665,5.886,5.886,5.886c3.22,0,5.886-2.665,5.886-5.886
	S309.088,163.373,305.867,163.373z"/>
<g>
</g>
<g>
</g>
<g>
</g>
<g>
</g>
<g>
</g>
<g>
</g>
<g>
</g>
<g>
</g>
<g>
</g>
<g>
</g>
<g>
</g>
<g>
</g>
<g>
</g>
<g>
</g>
<g>
</g>
</svg>
